<svg xmlns="http://www.w3.org/2000/svg" version="1.1" xmlns:xlink="http://www.w3.org/1999/xlink" xmlns:svgjs="http://svgjs.dev/svgjs" width="1500" height="1500" viewBox="0 0 1500 1500"><rect width="1500" height="1500" fill="#6222cc"></rect><g transform="matrix(0.6666666666666666,0,0,0.6666666666666666,249.50000000000006,249.50000000000006)"><svg viewBox="0 0 280 280" data-background-color="#6222cc" preserveAspectRatio="xMidYMid meet" height="1500" width="1500" xmlns="http://www.w3.org/2000/svg" xmlns:xlink="http://www.w3.org/1999/xlink"><g id="tight-bounds" transform="matrix(1,0,0,1,0.13999999999998636,0.13999999999998636)"><svg viewBox="0 0 279.72 279.72" height="279.72" width="279.72"><g><svg viewBox="0 0 279.72 279.72" height="279.72" width="279.72"><g><svg viewBox="0 0 279.72 279.72" height="279.72" width="279.72"><g id="textblocktransform"><svg viewBox="0 0 279.72 279.72" height="279.72" width="279.72" id="textblock"><g><svg viewBox="0 0 279.72 279.72" height="279.72" width="279.72"><g transform="matrix(1,0,0,1,68.16043304785585,68.16043304785585)"><svg viewBox="0 0 143.39913390428833 143.39913390428833" height="143.39913390428833" width="143.39913390428833"><g id="icon-0"><circle r="72" cx="71.69956695214417" cy="71.69956695214417" fill="#99abc1" data-fill-palette-color="accent"></circle><svg xmlns="http://www.w3.org/2000/svg" data-name="Layer 1" viewBox="2.33 15.67 95.34 68.67585260227244" x="21.50987008564325" y="21.50987008564325" height="100.37939373300183" width="100.37939373300183" class="icon-jxe-0" data-fill-palette-color="quaternary" id="jxe-0"><path d="M61.78 15.67H24.33A22 22 0 0 0 2.33 37.67V73.2A2 2 0 0 0 4.33 75.2H15.25A11.11 11.11 0 0 0 37.12 75.2H67.94A11.11 11.11 0 0 0 89.81 75.2H95.67A2 2 0 0 0 97.67 73.2V47.67A2 2 0 0 0 97.4 46.67L90.89 35.46A10 10 0 0 0 82.24 30.46H63.78V17.67A2 2 0 0 0 61.78 15.67M15.25 71.2H6.33V37.67A18 18 0 0 1 24.33 19.67H59.78V71.2H37.12A11.11 11.11 0 0 0 15.25 71.2M26.19 80.33A7.13 7.13 0 1 1 33.32 73.21 7.13 7.13 0 0 1 26.18 80.33ZM67.94 71.2H63.78V49.79H93.67V71.2H89.81A11.11 11.11 0 0 0 67.94 71.2M78.88 80.33A7.13 7.13 0 1 1 86 73.2 7.13 7.13 0 0 1 78.87 80.33ZM82.25 34.48A6 6 0 0 1 87.44 37.48L92.28 45.81H63.78V34.48Z" fill="#14293a" data-fill-palette-color="quaternary"></path><path d="M30 33.33H50A2 2 0 0 0 50 29.33H30A2 2 0 1 0 30 33.33" fill="#14293a" data-fill-palette-color="quaternary"></path><path d="M52 42.33A2 2 0 0 0 50 40.33H16.53A2 2 0 0 0 16.53 44.33H50A2 2 0 0 0 52 42.33" fill="#14293a" data-fill-palette-color="quaternary"></path><path d="M50 51.33H39.53A2 2 0 0 0 39.53 55.33H50A2 2 0 0 0 50 51.33" fill="#14293a" data-fill-palette-color="quaternary"></path></svg></g></svg></g><g id="text-0"><path d="M22.598 108.261l-19.023-6.918c-0.521-0.189-0.977-0.467-1.37-0.832-0.398-0.368-0.702-0.788-0.911-1.26-0.216-0.474-0.341-0.98-0.376-1.517-0.035-0.538 0.043-1.067 0.232-1.587v0l5.255-14.451c0.189-0.521 0.47-0.976 0.842-1.366 0.374-0.396 0.795-0.703 1.263-0.921 0.464-0.227 0.966-0.353 1.508-0.38 0.535-0.028 1.063 0.052 1.584 0.242v0l3.439 1.251-1.386 3.81-3.439-1.251-5.256 14.451 19.024 6.919 5.255-14.451-6.468-2.352-2.626 7.22-3.81-1.385 4.012-11.032 10.278 3.739c0.521 0.189 0.977 0.467 1.369 0.832 0.392 0.365 0.699 0.786 0.922 1.263 0.225 0.47 0.35 0.976 0.376 1.517 0.028 0.535-0.052 1.063-0.242 1.584v0l-5.256 14.451c-0.189 0.521-0.467 0.977-0.832 1.369-0.365 0.392-0.786 0.699-1.263 0.921-0.476 0.222-0.982 0.348-1.517 0.376-0.535 0.028-1.063-0.052-1.584-0.242z" fill="#e9e4de" data-fill-palette-color="primary"></path><path d="M62.552 31.016l8.485 10.201c0.346 0.416 0.592 0.87 0.738 1.364 0.147 0.493 0.197 0.987 0.152 1.482-0.04 0.491-0.177 0.965-0.411 1.424-0.229 0.454-0.551 0.854-0.967 1.199v0l-8.043 6.689c-0.405 0.337-0.855 0.579-1.348 0.726-0.493 0.147-0.987 0.197-1.482 0.152-0.495-0.045-0.971-0.185-1.43-0.42-0.458-0.234-0.86-0.559-1.206-0.974v0l-8.485-10.202c-0.346-0.416-0.592-0.87-0.738-1.363-0.151-0.499-0.202-0.993-0.152-1.482 0.045-0.495 0.185-0.971 0.42-1.43 0.234-0.458 0.554-0.856 0.959-1.193v0l8.042-6.69c0.416-0.346 0.868-0.59 1.356-0.731 0.493-0.147 0.985-0.195 1.474-0.146 0.491 0.04 0.967 0.18 1.43 0.42 0.458 0.234 0.86 0.559 1.206 0.974zM59.575 33.492l-8.042 6.689 8.484 10.202 8.043-6.689z" fill="#e9e4de" data-fill-palette-color="primary"></path><path d="M120.384 26.629l-3.988 0.734-12.091-19.184 3.988-0.733 9.244 14.966 3.337-17.279 3.988-0.733z" fill="#e9e4de" data-fill-palette-color="primary"></path><path d="M172.404 7.927l3.793 0.917-4.947 20.464-3.793-0.916zM173.169 3.941l0.953-3.941 4.168 1.007-0.953 3.942z" fill="#e9e4de" data-fill-palette-color="primary"></path><path d="M233.191 46.184l-10.865 13.284-3.013-2.465 10.865-13.283-8.403-6.874-10.865 13.284-2.997-2.452 13.329-16.296 2.998 2.452-2.349 2.871c0.346-0.38 0.744-0.68 1.192-0.897 0.454-0.214 0.921-0.342 1.402-0.385 0.486-0.039 0.967 0.014 1.442 0.158 0.475 0.144 0.917 0.384 1.326 0.717v0l5.39 4.409c0.418 0.342 0.747 0.742 0.984 1.198 0.243 0.461 0.387 0.936 0.431 1.426 0.054 0.489 0.007 0.984-0.139 1.484-0.143 0.495-0.385 0.951-0.728 1.369z" fill="#e9e4de" data-fill-palette-color="primary"></path><path d="M248.431 91.44l12.319-4.93c0.502-0.201 1.01-0.295 1.525-0.282 0.521 0.01 1.006 0.114 1.457 0.312 0.457 0.196 0.867 0.475 1.231 0.84 0.364 0.364 0.644 0.79 0.84 1.279v0l4.032 10.08 7.529-3.013 1.446 3.614-27.075 10.834-1.446-3.614 3.303-1.322c-0.467 0.143-0.942 0.191-1.427 0.145-0.491-0.044-0.952-0.169-1.383-0.374-0.423-0.202-0.806-0.478-1.151-0.828-0.335-0.346-0.596-0.752-0.781-1.216v0l-2.594-6.484c-0.196-0.489-0.287-0.991-0.275-1.506 0.013-0.514 0.117-1 0.312-1.457 0.196-0.457 0.475-0.867 0.839-1.231 0.364-0.364 0.797-0.646 1.299-0.848zM262.189 90.105l-12.319 4.93 4.032 10.079 12.32-4.929z" fill="#e9e4de" data-fill-palette-color="primary"></path><path d="M7.754 142.646c0-1.846 1.496-3.342 3.342-3.342 1.846 0 3.342 1.496 3.342 3.342 0 1.846-1.496 3.342-3.342 3.342-1.846 0-3.342-1.496-3.342-3.342z" fill="#e9e4de" data-fill-palette-color="primary"></path><path d="M262.943 142.646c0-1.846 1.496-3.342 3.342-3.342 1.846 0 3.342 1.496 3.342 3.342 0 1.846-1.496 3.342-3.342 3.342-1.846 0-3.342-1.496-3.342-3.342z" fill="#e9e4de" data-fill-palette-color="primary"></path></g><g id="text-1"><path d="M8.745 185.948l-1.135-3.383 26.753-8.98 2.225 6.631c0.591 1.762 0.826 3.34 0.703 4.736-0.13 1.398-0.497 2.619-1.102 3.663-0.611 1.046-1.365 1.912-2.26 2.598-0.896 0.686-1.828 1.191-2.796 1.515v0c-0.955 0.32-1.992 0.48-3.111 0.478-1.124 0.007-2.249-0.222-3.374-0.685-1.123-0.457-2.16-1.21-3.11-2.26-0.945-1.052-1.713-2.458-2.304-4.22v0l-1.091-3.248zM32.471 177.984l-11.301 3.793 1.029 3.066c0.54 1.608 1.247 2.782 2.123 3.521 0.876 0.74 1.812 1.163 2.811 1.27 0.998 0.107 1.952 0.008 2.862-0.298v0c0.871-0.292 1.678-0.777 2.42-1.454 0.742-0.677 1.247-1.573 1.514-2.689 0.267-1.116 0.124-2.497-0.429-4.144v0z" fill="#e9e4de" data-fill-palette-color="primary"></path><path d="M24.476 218.926v0c-0.93-1.442-1.414-2.996-1.45-4.661-0.042-1.661 0.322-3.247 1.092-4.758 0.769-1.501 1.9-2.733 3.393-3.697v0c1.493-0.963 3.085-1.488 4.775-1.573 1.688-0.076 3.28 0.248 4.777 0.972 1.502 0.72 2.718 1.801 3.648 3.243v0c0.703 1.09 1.161 2.242 1.374 3.457 0.216 1.22 0.19 2.414-0.077 3.583v0l2.079-1.34 1.698 2.632-15.809 10.198-1.698-2.632 2.078-1.34c-1.153-0.254-2.246-0.726-3.28-1.419-1.03-0.687-1.897-1.575-2.6-2.665zM27.294 217.627v0c0.648 1.005 1.489 1.753 2.522 2.245 1.024 0.49 2.108 0.707 3.254 0.651 1.15-0.05 2.233-0.403 3.25-1.059v0c1.016-0.656 1.785-1.497 2.304-2.524 0.523-1.021 0.776-2.101 0.757-3.239-0.028-1.14-0.366-2.213-1.014-3.218v0c-0.645-0.999-1.481-1.747-2.508-2.242-1.033-0.492-2.122-0.71-3.269-0.653-1.146 0.056-2.227 0.412-3.244 1.067v0c-1.016 0.656-1.786 1.494-2.309 2.515-0.523 1.021-0.771 2.102-0.744 3.242 0.022 1.144 0.356 2.215 1.001 3.215z" fill="#e9e4de" data-fill-palette-color="primary"></path><path d="M47.054 245.461v0c-1.338-1.26-2.255-2.726-2.751-4.399-0.495-1.673-0.563-3.356-0.203-5.049 0.365-1.699 1.163-3.202 2.395-4.511v0c1.232-1.309 2.685-2.197 4.358-2.664 1.669-0.462 3.353-0.496 5.053-0.102 1.699 0.393 3.218 1.22 4.557 2.479v0c0.989 0.931 1.752 1.979 2.289 3.144 0.542 1.169 0.867 2.352 0.975 3.548v0l-3.678 2.385c0.334-1.114 0.363-2.294 0.086-3.538-0.281-1.239-0.909-2.317-1.883-3.234v0c-0.886-0.834-1.894-1.374-3.025-1.623-1.136-0.243-2.255-0.202-3.359 0.123-1.109 0.32-2.078 0.921-2.907 1.802v0c-0.815 0.866-1.354 1.867-1.616 3.003-0.262 1.127-0.236 2.247 0.08 3.361 0.311 1.119 0.91 2.095 1.795 2.929v0c0.974 0.917 2.084 1.483 3.329 1.699 1.24 0.221 2.42 0.116 3.54-0.315v0l-2.158 3.816c-1.201-0.035-2.401-0.288-3.601-0.759-1.195-0.466-2.287-1.164-3.276-2.095z" fill="#e9e4de" data-fill-palette-color="primary"></path><path d="M78.396 266.676l-3.683-2.195-2.009-13.244 10.341-3.691 3.37 2.008-10.107 3.535zM67.085 259.936l-2.909-1.733 15.41-25.863 2.908 1.733z" fill="#e9e4de" data-fill-palette-color="primary"></path><path d="M99.455 274.744v0c-1.874-0.597-3.421-1.55-4.642-2.861-1.214-1.309-2.014-2.818-2.398-4.53-0.391-1.713-0.303-3.458 0.263-5.235v0c0.539-1.693 1.438-3.102 2.697-4.226 1.259-1.124 2.709-1.871 4.352-2.242 1.645-0.377 3.304-0.299 4.978 0.234v0c1.648 0.525 3.037 1.4 4.165 2.624 1.121 1.222 1.879 2.63 2.272 4.223 0.391 1.6 0.317 3.246-0.222 4.94v0l-0.418 1.314-11.716-3.731c-0.515-0.164-1.037-0.351-1.566-0.562-0.52-0.215-1.029-0.445-1.525-0.688v0c-0.288 1.66 0.011 3.227 0.896 4.7 0.881 1.465 2.168 2.467 3.862 3.006v0c1.133 0.361 2.272 0.436 3.417 0.227 1.136-0.206 2.14-0.641 3.012-1.307v0l-0.27 3.956c-1.078 0.423-2.233 0.654-3.466 0.695-1.224 0.036-2.454-0.143-3.691-0.537zM96.303 261.793v0c1.133 0.162 2.246 0.417 3.341 0.766v0l5.95 1.895c0.438 0.139 0.864 0.293 1.278 0.46 0.421 0.17 0.845 0.343 1.27 0.522v0c0.168-1.485-0.164-2.861-0.994-4.125-0.827-1.256-1.945-2.109-3.356-2.558v0c-1.455-0.463-2.884-0.386-4.286 0.231-1.409 0.615-2.476 1.552-3.203 2.809z" fill="#e9e4de" data-fill-palette-color="primary"></path><path d="M125.773 279.72l-3.368-0.346 1.923-18.715 3.116 0.32-0.352 3.429c0.779-1.034 1.753-1.821 2.922-2.36 1.17-0.546 2.515-0.74 4.034-0.584v0l0.501 3.455c-0.384-0.162-0.838-0.27-1.363-0.323v0c-1.741-0.179-3.2 0.232-4.376 1.231-1.177 1.007-1.871 2.539-2.082 4.596v0z" fill="#e9e4de" data-fill-palette-color="primary"></path><path d="M169.759 276.309l-3.263 0.906-7.802-28.099 17.461 13.898 7.552-20.844 7.803 28.1-3.438 0.954-3.491-12.57c-0.23-0.827-0.47-1.731-0.722-2.713-0.252-0.982-0.492-2.115-0.722-3.397v0c-0.316 1.287-0.654 2.429-1.016 3.427-0.361 0.998-0.684 1.919-0.968 2.762v0l-3.555 9.929-8.351-6.623c-0.705-0.569-1.46-1.19-2.264-1.864-0.804-0.674-1.684-1.479-2.638-2.414v0c0.471 1.216 0.852 2.309 1.143 3.281 0.291 0.971 0.551 1.87 0.78 2.697v0z" fill="#99abc1" data-fill-palette-color="accent"></path><path d="M214.814 257.342v0c-1.53 0.995-3.163 1.533-4.899 1.614-1.742 0.085-3.388-0.252-4.937-1.01-1.558-0.76-2.827-1.894-3.807-3.401v0c-0.991-1.524-1.514-3.147-1.569-4.867-0.061-1.718 0.301-3.355 1.085-4.914 0.779-1.554 1.933-2.829 3.463-3.823v0c1.541-1.002 3.177-1.542 4.908-1.62 1.731-0.078 3.372 0.258 4.922 1.007 1.545 0.752 2.813 1.891 3.805 3.415v0c0.98 1.507 1.504 3.125 1.572 4.854 0.059 1.727-0.298 3.366-1.071 4.916-0.773 1.551-1.93 2.827-3.472 3.829zM213.074 254.665v0c1.014-0.659 1.768-1.508 2.261-2.547 0.503-1.036 0.727-2.129 0.673-3.279-0.049-1.153-0.403-2.237-1.062-3.251v0c-0.659-1.014-1.506-1.777-2.54-2.289-1.029-0.516-2.121-0.757-3.276-0.724-1.146 0.036-2.226 0.383-3.24 1.043v0c-1.02 0.663-1.778 1.511-2.275 2.543-0.499 1.042-0.722 2.138-0.668 3.288 0.049 1.153 0.403 2.237 1.062 3.251v0c0.659 1.014 1.506 1.777 2.541 2.289 1.029 0.516 2.119 0.754 3.27 0.716 1.149-0.03 2.234-0.376 3.254-1.04z" fill="#99abc1" data-fill-palette-color="accent"></path><path d="M231.574 216.613l7.956 20.43-20.923-6.535 2.635-2.823 8.565 2.766c0.778 0.236 1.535 0.485 2.271 0.747 0.731 0.257 1.571 0.625 2.519 1.103v0c-0.534-0.923-0.955-1.75-1.262-2.481-0.307-0.73-0.605-1.461-0.893-2.192v0l-3.33-8.377z" fill="#99abc1" data-fill-palette-color="accent"></path><path d="M258.054 210.758v0c-0.997 1.695-2.269 2.993-3.817 3.893-1.545 0.895-3.194 1.34-4.948 1.336-1.757 0.002-3.439-0.47-5.048-1.415v0c-1.532-0.901-2.707-2.089-3.524-3.565-0.818-1.476-1.225-3.056-1.223-4.74-0.004-1.687 0.44-3.288 1.33-4.803v0c0.877-1.491 2.037-2.651 3.481-3.481 1.44-0.823 2.981-1.25 4.621-1.28 1.647-0.028 3.236 0.409 4.769 1.309v0l1.188 0.699-6.231 10.6c-0.274 0.466-0.572 0.933-0.895 1.402-0.325 0.46-0.661 0.905-1.009 1.335v0c1.555 0.648 3.149 0.703 4.783 0.166 1.624-0.535 2.886-1.568 3.786-3.101v0c0.603-1.025 0.928-2.119 0.977-3.282 0.051-1.154-0.152-2.229-0.608-3.226v0l3.799 1.139c0.174 1.145 0.144 2.322-0.09 3.534-0.236 1.202-0.683 2.362-1.341 3.48zM244.727 210.966v0c0.409-1.069 0.904-2.098 1.487-3.089v0l3.164-5.383c0.233-0.396 0.477-0.778 0.732-1.145 0.259-0.373 0.522-0.748 0.79-1.123v0c-1.411-0.493-2.826-0.474-4.243 0.057-1.408 0.528-2.487 1.43-3.237 2.706v0c-0.774 1.317-1.015 2.727-0.724 4.231 0.288 1.51 0.965 2.758 2.031 3.746z" fill="#99abc1" data-fill-palette-color="accent"></path><path d="M268.735 186.198l-1.083 3.208-17.824-6.022 1.003-2.968 3.265 1.104c-0.836-0.989-1.387-2.113-1.653-3.373-0.273-1.262-0.165-2.616 0.324-4.063v0l3.48 0.277c-0.243 0.339-0.449 0.758-0.617 1.257v0c-0.56 1.658-0.483 3.171 0.231 4.54 0.721 1.371 2.061 2.387 4.02 3.049v0z" fill="#99abc1" data-fill-palette-color="accent"></path></g></svg></g></svg></g></svg></g></svg></g><defs></defs></svg><rect width="279.72" height="279.72" fill="none" stroke="none" visibility="hidden"></rect></g></svg></g></svg>